HIERARCHY
ROOT Hips
{
	OFFSET 0.000000 0.000000 0.000000
	CHANNELS 6 Xposition Yposition Zposition Zrotation Yrotation Xrotation 
	JOINT LowerBack
	{
		OFFSET 0.000000 0.000000 0.000000
		CHANNELS 3 Zrotation Yrotation Xrotation
		JOINT Spine
		{
			OFFSET 0.028270 2.035590 -0.193380
			CHANNELS 3 Zrotation Yrotation Xrotation
			JOINT Spine1
			{
				OFFSET 0.056720 2.048850 -0.042750
				CHANNELS 3 Zrotation Yrotation Xrotation
				JOINT Neck
				{
					OFFSET 0.000000 0.000000 0.000000
					CHANNELS 3 Zrotation Yrotation Xrotation
					JOINT Neck1
					{
						OFFSET -0.054170 1.746240 0.172020
						CHANNELS 3 Zrotation Yrotation Xrotation
						JOINT Head
						{
							OFFSET 0.104070 1.761360 -0.123970
							CHANNELS 3 Zrotation Yrotation Xrotation
							End Site
							{
								OFFSET 0.000000 0.000000 0.000000
							}
						}
					}
				}
				JOINT LeftShoulder
				{
					OFFSET 0.000000 0.000000 0.000000
					CHANNELS 3 Zrotation Yrotation Xrotation
					JOINT LeftArm
					{
						OFFSET 3.362410 1.200890 -0.311210
						CHANNELS 3 Zrotation Yrotation Xrotation
						JOINT LeftForeArm
						{
							OFFSET 4.983000 -0.000000 -0.000000
							CHANNELS 3 Zrotation Yrotation Xrotation
							JOINT LeftHand
							{
								OFFSET 3.483560 -0.000000 -0.000000
								CHANNELS 3 Zrotation Yrotation Xrotation
								JOINT LeftFingerBase
								{
									OFFSET 0.000000 0.000000 0.000000
									CHANNELS 3 Zrotation Yrotation Xrotation
									JOINT LeftHandIndex1
									{
										OFFSET 0.715260 -0.000000 -0.000000
										CHANNELS 3 Zrotation Yrotation Xrotation
										End Site
										{
											OFFSET 0.000000 0.000000 0.000000
										}
									}
								}
								JOINT LThumb
								{
									OFFSET 0.000000 0.000000 0.000000
									CHANNELS 3 Zrotation Yrotation Xrotation
									End Site
									{
										OFFSET 0.000000 0.000000 0.000000
									}
								}
							}
						}
					}
				}
				JOINT RightShoulder
				{
					OFFSET 0.000000 0.000000 0.000000
					CHANNELS 3 Zrotation Yrotation Xrotation
					JOINT RightArm
					{
						OFFSET -3.136600 1.374050 -0.404650
						CHANNELS 3 Zrotation Yrotation Xrotation
						JOINT RightForeArm
						{
							OFFSET -5.241900 -0.000000 -0.000000
							CHANNELS 3 Zrotation Yrotation Xrotation
							JOINT RightHand
							{
								OFFSET -3.444170 -0.000000 -0.000000
								CHANNELS 3 Zrotation Yrotation Xrotation
								JOINT RightFingerBase
								{
									OFFSET 0.000000 0.000000 0.000000
									CHANNELS 3 Zrotation Yrotation Xrotation
									JOINT RightHandIndex1
									{
										OFFSET -0.622530 -0.000000 -0.000000
										CHANNELS 3 Zrotation Yrotation Xrotation
										End Site
										{
											OFFSET 0.000000 0.000000 0.000000
										}
									}
								}
								JOINT RThumb
								{
									OFFSET 0.000000 0.000000 0.000000
									CHANNELS 3 Zrotation Yrotation Xrotation
									End Site
									{
										OFFSET 0.000000 0.000000 0.000000
									}
								}
							}
						}
					}
				}
			}
		}
	}
}
}
MOTION
Frames: 18
Frame Time: 0.008333
27.936990 15.536925 2.414132 -55.478706 -88.662489 79.152848 -2.601332 -0.015462 10.253651 -1.392188 0.308472 -1.088772 -5.872950 0.331846 -0.562350 8.847782 -8.672227 -8.866810 -2.128492 -0.118859 -0.719682 0.000000 0.000000 0.000000 1.552714 15.275967 2.969238 -71.652894 27.621013 12.022762 -1.065398 -67.735331 -0.003203 2.049198 3.543677 0.065059 -0.053797 0.022217 -0.000000 0.000000 0.000000 0.000000 0.000000 0.000000 0.000000 7.810731 -2.094384 -0.292279 64.579160 7.132517 15.283769 179.936795 88.880069 179.965696 -6.267480 6.179058 -0.369633 0.120326 -0.456031 -0.000000 0.000000 0.000000 0.000000 0.000000 0.000000 0.000000 
27.818288 15.531460 2.433707 -58.506773 -88.402132 82.089885 -2.597541 -0.017360 10.302112 -1.397518 0.310945 -1.080912 -5.900216 0.335358 -0.575846 8.868266 -8.645174 -8.851395 -2.125119 -0.118736 -0.716030 0.000000 0.000000 0.000000 1.511225 15.285311 2.961650 -71.671019 27.549096 11.937735 -1.058697 -67.897422 -0.003254 2.062332 3.565841 0.065859 -0.053665 0.023181 -0.000000 0.000000 0.000000 0.000000 0.000000 0.000000 0.000000 7.791973 -2.058075 -0.292947 64.717224 7.110004 15.379463 179.938745 88.949406 179.966097 -6.176091 6.117768 -0.360742 0.118264 -0.454589 -0.000000 0.000000 0.000000 0.000000 0.000000 0.000000 0.000000 
27.700812 15.527503 2.452857 -61.024885 -88.152878 84.520667 -2.608384 -0.017437 10.352413 -1.405777 0.314991 -1.072971 -5.927607 0.340470 -0.591317 8.897947 -8.619386 -8.835456 -2.123101 -0.118703 -0.712465 0.000000 0.000000 0.000000 1.474579 15.286935 2.951119 -71.692584 27.476367 11.853271 -1.048892 -68.111738 -0.003306 2.095488 3.558318 0.066761 -0.053610 0.024656 -0.000000 0.000000 0.000000 0.000000 0.000000 0.000000 0.000000 7.789850 -2.022305 -0.288761 64.847902 7.092505 15.485917 179.940839 89.030346 179.966780 -6.059608 6.064870 -0.351052 0.115902 -0.453151 -0.000000 0.000000 0.000000 0.000000 0.000000 0.000000 0.000000 
27.584904 15.525061 2.471420 -63.061413 -87.915951 86.472524 -2.635076 -0.016794 10.404670 -1.417282 0.319432 -1.064790 -5.955119 0.346027 -0.608166 8.937717 -8.594135 -8.818891 -2.122446 -0.118760 -0.708946 0.000000 0.000000 0.000000 1.447559 15.280713 2.938383 -71.717032 27.394037 11.776961 -1.036818 -68.364723 -0.003360 2.142885 3.523478 0.067565 -0.053614 0.026616 -0.000000 0.000000 0.000000 0.000000 0.000000 0.000000 0.000000 7.805030 -1.987038 -0.280430 64.973067 7.075537 15.597581 179.943110 89.123750 179.967614 -5.922099 6.020362 -0.340561 0.113273 -0.451722 -0.000000 0.000000 0.000000 0.000000 0.000000 0.000000 0.000000 
27.470352 15.524126 2.489271 -64.662279 -87.692262 87.993426 -2.676993 -0.016222 10.457716 -1.432018 0.323396 -1.056799 -5.982959 0.351135 -0.627076 8.987049 -8.568260 -8.800067 -2.123272 -0.118947 -0.704966 0.000000 0.000000 0.000000 1.429713 15.260190 2.923725 -71.743328 27.302415 11.708042 -1.023014 -68.649418 -0.003413 2.197179 3.465568 0.067970 -0.053620 0.029005 -0.000000 0.000000 0.000000 0.000000 0.000000 0.000000 0.000000 7.837114 -1.952054 -0.268094 65.095540 7.053348 15.709352 179.945759 89.232449 179.968564 -5.769088 5.983464 -0.329770 0.110450 -0.450282 -0.000000 0.000000 0.000000 0.000000 0.000000 0.000000 0.000000 
27.357340 15.524721 2.506374 -65.885315 -87.481940 89.139849 -2.732493 -0.016527 10.510924 -1.449663 0.326038 -1.049241 -6.011249 0.354942 -0.648341 9.044650 -8.540509 -8.777734 -2.125606 -0.119288 -0.700106 0.000000 0.000000 0.000000 1.419955 15.222020 2.907403 -71.769359 27.200058 11.646250 -1.008062 -68.958311 -0.003465 2.251713 3.390707 0.068075 -0.053585 0.031744 -0.000000 0.000000 0.000000 0.000000 0.000000 0.000000 0.000000 7.884510 -1.916924 -0.252332 65.218357 7.021628 15.817888 179.949061 89.360641 179.969584 -5.607580 5.953996 -0.318978 0.107525 -0.448813 -0.000000 0.000000 0.000000 0.000000 0.000000 0.000000 0.000000 
27.245694 15.526834 2.522697 -66.796461 -87.284846 89.976584 -2.798909 -0.018168 10.563371 -1.469609 0.326882 -1.042214 -6.039836 0.356966 -0.671395 9.108306 -8.510066 -8.751115 -2.129388 -0.119795 -0.694075 0.000000 0.000000 0.000000 1.417394 15.166664 2.889531 -71.793213 27.082672 11.594615 -0.992603 -69.281269 -0.003516 2.301405 3.305902 0.067682 -0.053493 0.034740 -0.000000 0.000000 0.000000 0.000000 0.000000 0.000000 0.000000 7.944854 -1.881706 -0.234109 65.344043 6.977773 15.921029 179.953355 89.513979 179.970628 -5.445067 5.931103 -0.308486 0.104603 -0.447269 -0.000000 0.000000 0.000000 0.000000 0.000000 0.000000 0.000000 
27.135277 15.530412 2.538318 -67.458378 -87.100471 90.567277 -2.873138 -0.021583 10.613849 -1.491131 0.325488 -1.035877 -6.068477 0.356746 -0.695761 9.175263 -8.475832 -8.719518 -2.134658 -0.120486 -0.686627 0.000000 0.000000 0.000000 1.419275 15.094541 2.870234 -71.813359 26.947705 11.552398 -0.977151 -69.609875 -0.003566 2.342072 3.217670 0.066988 -0.053324 0.037908 -0.000000 0.000000 0.000000 0.000000 0.000000 0.000000 0.000000 8.015887 -1.846213 -0.214184 65.474225 6.920083 16.018477 179.958974 89.698346 179.971652 -5.288838 5.914134 -0.298792 0.101795 -0.445606 -0.000000 0.000000 0.000000 0.000000 0.000000 0.000000 0.000000 
27.026270 15.535474 2.553317 -67.940851 -86.927368 90.980579 -2.951568 -0.027157 10.661554 -1.513360 0.321515 -1.030230 -6.096940 0.353933 -0.720610 9.242456 -8.437331 -8.682772 -2.141432 -0.121368 -0.677660 0.000000 0.000000 0.000000 1.422536 15.008135 2.849509 -71.828061 26.791618 11.519890 -0.962179 -69.935682 -0.003616 2.371513 3.132216 0.065894 -0.053082 0.041157 -0.000000 0.000000 0.000000 0.000000 0.000000 0.000000 0.000000 8.095171 -1.810806 -0.193392 65.610094 6.849253 16.111388 179.966278 89.920769 179.972624 -5.144995 5.902740 -0.289998 0.099196 -0.443771 -0.000000 0.000000 0.000000 0.000000 0.000000 0.000000 0.000000 
26.918460 15.541981 2.567821 -68.312759 -86.764706 91.282774 -3.030574 -0.035172 10.706450 -1.535380 0.314756 -1.025124 -6.124853 0.348311 -0.745083 9.306764 -8.394006 -8.641123 -2.149755 -0.122445 -0.667197 0.000000 0.000000 0.000000 1.423840 14.910989 2.827474 -71.836211 26.610534 11.496509 -0.948146 -70.249932 -0.003664 2.388717 3.054069 0.064599 -0.052776 0.044411 -0.000000 0.000000 0.000000 0.000000 0.000000 0.000000 0.000000 8.180343 -1.775511 -0.172479 65.751648 6.767162 16.201311 -0.024432 89.812571 -0.026483 -5.017973 5.896670 -0.282504 0.096870 -0.441716 0.000000 0.000000 0.000000 0.000000 0.000000 0.000000 0.000000 
26.811844 15.549914 2.581999 -68.642696 -86.609950 91.542102 -3.106093 -0.045591 10.748380 -1.556140 0.305334 -1.019789 -6.151473 0.340026 -0.765919 9.365821 -8.346613 -8.597160 -2.159596 -0.123671 -0.656002 0.000000 0.000000 0.000000 1.426901 14.816361 2.804689 -71.840245 26.387580 11.490583 -0.935844 -70.533634 -0.003714 2.395420 2.985599 0.063305 -0.052472 0.047641 -0.000000 0.000000 0.000000 0.000000 0.000000 0.000000 0.000000 8.270382 -1.741412 -0.152846 65.897175 6.678682 16.290697 -0.012921 89.496622 -0.025683 -4.910341 5.894888 -0.276208 0.094848 -0.439378 -0.000000 0.000000 0.000000 0.000000 0.000000 0.000000 0.000000 
26.706319 15.559335 2.595952 -68.969992 -86.464770 91.796307 -3.176039 -0.058952 10.787886 -1.575327 0.292754 -1.015782 -6.177628 0.328444 -0.789437 9.415186 -8.292671 -8.546032 -2.171431 -0.125168 -0.642583 0.000000 0.000000 0.000000 1.408010 14.698124 2.780096 -71.831776 26.159578 11.471375 -0.924230 -70.812707 -0.003757 2.390131 2.930089 0.061910 -0.052062 0.050735 -0.000000 0.000000 0.000000 0.000000 0.000000 0.000000 0.000000 8.361740 -1.706853 -0.131674 66.049073 6.581623 16.382465 0.001085 89.123171 -0.024966 -4.822452 5.901068 -0.271413 0.093177 -0.436781 -0.000000 0.000000 0.000000 0.000000 0.000000 0.000000 0.000000 
26.602098 15.570153 2.609888 -69.365544 -86.324284 92.115822 -3.236176 -0.074363 10.825582 -1.591663 0.278019 -1.010454 -6.201413 0.314709 -0.805677 9.455252 -8.235313 -8.496640 -2.184861 -0.126755 -0.629642 0.000000 0.000000 0.000000 1.392433 14.598527 2.755831 -71.823275 25.870083 11.473893 -0.915347 -71.036191 -0.003806 2.378845 2.884932 0.060615 -0.051746 0.053780 -0.000000 0.000000 0.000000 0.000000 0.000000 0.000000 0.000000 8.456140 -1.674050 -0.112852 66.200837 6.486478 16.476166 0.017558 88.693162 -0.024327 -4.751807 5.910911 -0.267716 0.091757 -0.433825 -0.000000 0.000000 0.000000 0.000000 0.000000 0.000000 0.000000 
26.499089 15.582414 2.623886 -69.852166 -86.190522 92.522000 -3.285650 -0.092220 10.862455 -1.605212 0.260745 -1.005725 -6.224014 0.298269 -0.822818 9.482337 -8.172922 -8.443432 -2.200314 -0.128560 -0.615487 0.000000 0.000000 0.000000 1.353490 14.483093 2.730592 -71.805730 25.566545 11.460168 -0.907672 -71.239747 -0.003851 2.361400 2.850741 0.059320 -0.051392 0.056689 -0.000000 0.000000 0.000000 0.000000 0.000000 0.000000 0.000000 8.550153 -1.641989 -0.092294 66.355527 6.391404 16.575339 0.036716 88.198983 -0.023740 -4.696279 5.929356 -0.265219 0.090615 -0.430571 0.000000 0.000000 0.000000 0.000000 0.000000 0.000000 0.000000 
26.397284 15.596076 2.638092 -70.467881 -86.060754 93.053555 -3.321768 -0.111462 10.899219 -1.615247 0.242027 -1.000161 -6.244323 0.280273 -0.835775 9.497038 -8.106784 -8.391880 -2.217606 -0.130475 -0.601800 0.000000 0.000000 0.000000 1.306819 14.374039 2.706013 -71.788935 25.217819 11.446910 -0.902311 -71.394100 -0.003901 2.342175 2.824688 0.058325 -0.051117 0.059537 -0.000000 0.000000 0.000000 0.000000 0.000000 0.000000 0.000000 8.644923 -1.610683 -0.071613 66.508674 6.300469 16.676364 0.058410 87.643480 -0.023178 -4.650105 5.953350 -0.263423 0.089617 -0.426969 -0.000000 0.000000 0.000000 0.000000 0.000000 0.000000 0.000000 
26.296832 15.611101 2.652591 -71.227230 -85.934314 93.725698 -3.343978 -0.131763 10.936656 -1.621658 0.222197 -0.993709 -6.262155 0.261032 -0.845034 9.498906 -8.037572 -8.343036 -2.236549 -0.132468 -0.588919 0.000000 0.000000 0.000000 1.251192 14.270058 2.682459 -71.774318 24.826274 11.428627 -0.899145 -71.499872 -0.003960 2.324846 2.804899 0.057430 -0.050947 0.062350 -0.000000 0.000000 0.000000 0.000000 0.000000 0.000000 0.000000 8.739108 -1.580238 -0.050004 66.660077 6.215522 16.778118 0.082617 87.025995 -0.022614 -4.608654 5.983477 -0.262128 0.088695 -0.423036 -0.000000 0.000000 0.000000 0.000000 0.000000 0.000000 0.000000 
26.197670 15.627415 2.667458 -72.136467 -85.810197 94.546397 -3.351250 -0.152443 10.975038 -1.624338 0.201916 -0.986806 -6.277675 0.241143 -0.852592 9.488167 -7.965934 -8.296784 -2.257049 -0.134535 -0.576820 0.000000 0.000000 0.000000 1.184051 14.162477 2.660051 -71.763631 24.403095 11.394045 -0.897697 -71.564397 -0.004030 2.312221 2.790389 0.056737 -0.050873 0.065140 -0.000000 0.000000 0.000000 0.000000 0.000000 0.000000 0.000000 8.831972 -1.550519 -0.025847 66.809028 6.135328 16.877780 0.109280 86.347753 -0.022013 -4.567676 6.019518 -0.261033 0.087801 -0.418789 0.000000 0.000000 0.000000 0.000000 0.000000 0.000000 0.000000 
26.100102 15.644903 2.682707 -73.192895 -85.686704 95.511816 -3.343180 -0.172830 11.014877 -1.623105 0.181857 -0.978815 -6.290327 0.221323 -0.856400 9.466207 -7.892245 -8.256319 -2.278684 -0.136589 -0.566469 0.000000 0.000000 0.000000 1.116035 14.062651 2.639825 -71.762964 23.933298 11.352048 -0.898352 -71.576152 -0.004122 2.308812 2.779715 0.056444 -0.050984 0.067966 -0.000000 0.000000 0.000000 0.000000 0.000000 0.000000 0.000000 8.922719 -1.520375 0.000100 66.954719 6.059235 16.968772 0.138150 85.613744 -0.021389 -4.521887 6.059075 -0.259839 0.086819 -0.414226 0.000000 0.000000 0.000000 0.000000 0.000000 0.000000 0.000000 
